<svg xmlns="http://www.w3.org/2000/svg" width="1600" height="600" viewBox="0 0 1600 600">
  <defs>
    <linearGradient id="g" x1="0" y1="0" x2="0" y2="1">
      <stop offset="0" stop-color="#f3f4f6"/>
      <stop offset="1" stop-color="#e5e7eb"/>
    </linearGradient>
    <filter id="blur" x="-20%" y="-20%" width="140%" height="140%">
      <feGaussianBlur stdDeviation="6"/>
    </filter>
  </defs>

  <rect width="1600" height="600" fill="url(#g)"/>

  <g opacity="0.35" filter="url(#blur)">
    <circle cx="260" cy="240" r="170" fill="#d1d5db"/>
    <circle cx="560" cy="210" r="170" fill="#d1d5db"/>
    <circle cx="860" cy="240" r="170" fill="#d1d5db"/>
    <circle cx="1160" cy="210" r="170" fill="#d1d5db"/>
    <circle cx="1400" cy="250" r="160" fill="#d1d5db"/>
  </g>

  <g stroke="#111827" stroke-width="3" opacity="0.35">
    <path d="M170 260 L370 180 L510 270 L690 200 L860 330 L1040 190 L1220 300 L1460 210" fill="none"/>
    <path d="M220 170 L320 320 L520 160 L610 320 L820 190 L910 340 L1150 170 L1250 340" fill="none"/>
  </g>

  <g fill="#111827" opacity="0.65">
    <circle cx="170" cy="260" r="7"/>
    <circle cx="370" cy="180" r="7"/>
    <circle cx="510" cy="270" r="7"/>
    <circle cx="690" cy="200" r="7"/>
    <circle cx="860" cy="330" r="7"/>
    <circle cx="1040" cy="190" r="7"/>
    <circle cx="1220" cy="300" r="7"/>
    <circle cx="1460" cy="210" r="7"/>

    <circle cx="220" cy="170" r="7"/>
    <circle cx="320" cy="320" r="7"/>
    <circle cx="520" cy="160" r="7"/>
    <circle cx="610" cy="320" r="7"/>
    <circle cx="820" cy="190" r="7"/>
    <circle cx="910" cy="340" r="7"/>
    <circle cx="1150" cy="170" r="7"/>
    <circle cx="1250" cy="340" r="7"/>
  </g>

  <g font-family="ui-sans-serif, system-ui" font-size="26" fill="#111827" opacity="0.65">
    <text x="96" y="520">Spec</text>
    <text x="356" y="520">Diff</text>
    <text x="604" y="520">Tests</text>
    <text x="850" y="520">Review</text>
    <text x="1120" y="520">Refactor</text>
    <text x="1370" y="520">Ship</text>
  </g>

  <g font-family="ui-monospace, SFMono-Regular, Menlo" font-size="18" fill="#111827" opacity="0.55">
    <text x="1320" y="60">signal</text>
    <text x="1320" y="84">higher</text>
    <text x="1320" y="108">confidence</text>
  </g>
</svg>